<svg viewBox="0 0 1600 1000" xmlns="http://www.w3.org/2000/svg" preserveAspectRatio="xMidYMid slice"><rect width="1600" height="1000" fill="#E9E7E4"/><defs>
      <radialGradient id="g-building-nocturne-journal" cx="45%" cy="29%" r="90%">
        <stop offset="0%" stop-color="#2B2B2E" stop-opacity="0.59"/>
        <stop offset="100%" stop-color="#E9E7E4" stop-opacity="0"/>
      </radialGradient>
      
    <filter id="grain-building-nocturne-journal">
      <feTurbulence type="fractalNoise" baseFrequency="0.85" numOctaves="2" seed="12" result="noise"/>
      <feColorMatrix in="noise" type="matrix"
        values="0 0 0 0 0  0 0 0 0 0  0 0 0 0 0  0 0 0 0.02 0"/>
      <feComposite operator="over" in2="SourceGraphic"/>
    </filter>

    </defs><rect width="1600" height="1000" fill="url(#g-building-nocturne-journal)"/><path d="M 1111.8 414.9 Q 1111.8 414.9 1067.3 523.3 Q 1022.9 631.7 914.5 658.6 Q 806.1 685.5 717.2 639.1 Q 628.4 592.7 578.1 503.8 Q 527.8 414.9 542.5 290.5 Q 557.2 166.0 681.7 158.7 Q 806.1 151.3 936.4 152.9 Q 1066.7 154.4 1089.2 284.7 Z" fill="#B0524B" opacity="0.55"/><path d="M 1016.4 311.5 Q 1016.4 311.5 980.6 352.2 Q 944.8 393.0 894.6 398.4 Q 844.5 403.7 816.9 357.6 Q 789.4 311.5 817.7 266.7 Q 846.0 222.0 900.7 216.8 Q 955.4 211.7 985.9 261.6 Z" fill="#2B2B2E" opacity="0.35"/><circle cx="774.5" cy="581.7" r="122.6" fill="none" stroke="#2B2B2E" stroke-width="1" opacity="0.4"/><circle cx="221.5" cy="182.2" r="185.1" fill="none" stroke="#B0524B" stroke-width="1" opacity="0.4"/><circle cx="1250.8" cy="717.5" r="206.0" fill="none" stroke="#2B2B2E" stroke-width="1" opacity="0.4"/><line x1="0" y1="390.0" x2="1600" y2="340.0" stroke="#2B2B2E" stroke-width="0.6" opacity="0.25"/><rect width="1600" height="1000" fill="transparent" filter="url(#grain-building-nocturne-journal)"/></svg>