<svg viewBox="0 0 1600 1000" xmlns="http://www.w3.org/2000/svg" preserveAspectRatio="xMidYMid slice"><rect width="1600" height="1000" fill="#F0EEE4"/><defs>
      <radialGradient id="g-on-drawing-silence-journal" cx="54%" cy="32%" r="90%">
        <stop offset="0%" stop-color="#7C8A6E" stop-opacity="0.75"/>
        <stop offset="100%" stop-color="#F0EEE4" stop-opacity="0"/>
      </radialGradient>
      
    <filter id="grain-on-drawing-silence-journal">
      <feTurbulence type="fractalNoise" baseFrequency="0.85" numOctaves="2" seed="11" result="noise"/>
      <feColorMatrix in="noise" type="matrix"
        values="0 0 0 0 0  0 0 0 0 0  0 0 0 0 0  0 0 0 0.02 0"/>
      <feComposite operator="over" in2="SourceGraphic"/>
    </filter>

    </defs><rect width="1600" height="1000" fill="url(#g-on-drawing-silence-journal)"/><path d="M 1026.9 537.0 Q 1026.9 537.0 1026.1 691.9 Q 1025.4 846.8 870.6 843.4 Q 715.7 840.0 608.7 795.5 Q 501.7 751.0 425.1 644.0 Q 348.4 537.0 393.7 398.6 Q 438.9 260.2 577.3 203.6 Q 715.7 147.1 826.7 231.0 Q 937.7 315.0 982.3 426.0 Z" fill="#D9C9A3" opacity="0.55"/><path d="M 1060.1 543.3 Q 1060.1 543.3 1019.7 617.9 Q 979.2 692.4 899.1 682.2 Q 818.9 672.0 756.3 607.7 Q 693.7 543.3 749.2 466.8 Q 804.8 390.2 893.6 389.4 Q 982.5 388.6 1021.3 465.9 Z" fill="#7C8A6E" opacity="0.35"/><circle cx="735.4" cy="254.7" r="133.0" fill="none" stroke="#7C8A6E" stroke-width="1" opacity="0.4"/><circle cx="1030.0" cy="116.9" r="219.2" fill="none" stroke="#D9C9A3" stroke-width="1" opacity="0.4"/><circle cx="312.1" cy="402.6" r="128.9" fill="none" stroke="#7C8A6E" stroke-width="1" opacity="0.4"/><line x1="0" y1="721.2" x2="1600" y2="671.2" stroke="#7C8A6E" stroke-width="0.6" opacity="0.25"/><rect width="1600" height="1000" fill="transparent" filter="url(#grain-on-drawing-silence-journal)"/></svg>